<svg width="218" height="274" viewBox="0 0 218 274" fill="none" xmlns="http://www.w3.org/2000/svg">
<path opacity="0.18" d="M72.6707 29.7693C61.4818 43.5503 54.514 60.6844 44.8709 75.7377C37.7366 86.9861 29.0328 97.0573 21.7797 108.258C7.3209 130.564 -1.40667 157.758 0.186647 184.928C1.77996 212.097 14.4552 238.922 35.5845 253.797C48.5569 262.941 63.9075 267.281 79.1748 270.099C130.577 279.611 185.903 272.286 229.826 241.954C237.365 236.746 244.583 230.872 252.763 226.925C273.773 216.77 301.026 219.124 316.258 200.48C325.426 189.256 327.447 173.204 327.138 158.234C326.769 140.255 323.25 121.373 312.298 107.889C298.03 90.2084 274.725 85.476 255.438 74.5962C236.64 64.0494 221.479 47.4623 205.332 32.6468C166.486 -3.01261 110.601 -16.9482 72.6707 29.7693Z" fill="#2F1073"/>
<path d="M259.041 177.341C259.044 178.442 258.82 179.531 258.384 180.541C257.949 181.551 257.31 182.462 256.509 183.215C255.136 184.519 253.364 185.324 251.479 185.498C251.127 185.528 250.773 185.528 250.421 185.498L191.361 184.309C189.097 184.285 186.931 183.378 185.326 181.781C183.72 180.184 182.801 178.024 182.764 175.76C182.76 174.66 182.98 173.57 183.412 172.558C183.843 171.546 184.476 170.633 185.273 169.874C186.913 168.315 189.099 167.462 191.361 167.496H193.37C192.955 166.038 192.743 164.53 192.74 163.013C192.737 160.846 193.176 158.701 194.031 156.71C194.885 154.719 196.137 152.923 197.71 151.432C199.099 150.105 200.708 149.03 202.467 148.257C204.745 147.265 207.211 146.778 209.696 146.831L214.714 146.938C217.835 147.001 220.882 147.902 223.537 149.546C226.191 151.19 228.355 153.517 229.803 156.283C231.25 155.595 232.838 155.257 234.44 155.297H235.736C238.424 155.324 240.995 156.399 242.903 158.293C244.81 160.188 245.904 162.751 245.95 165.439V165.927C245.949 166.853 245.813 167.774 245.546 168.661L250.433 168.757C252.702 168.787 254.87 169.701 256.478 171.303C258.085 172.906 259.004 175.072 259.041 177.341Z" fill="white"/>
<path d="M251.479 185.498C251.127 185.528 250.773 185.528 250.421 185.498L191.361 184.309C189.097 184.285 186.931 183.378 185.326 181.781C183.72 180.184 182.801 178.024 182.764 175.76C182.76 174.66 182.98 173.57 183.412 172.558C183.843 171.546 184.476 170.633 185.273 169.874C182.895 184.464 198.174 182.371 198.174 182.371H236.545L251.479 185.498Z" fill="url(#paint0_linear_1_5329)"/>
<path d="M197.699 169.256L193.406 167.627C192.991 166.169 192.778 164.66 192.776 163.144C192.773 160.977 193.212 158.832 194.066 156.841C194.921 154.849 196.173 153.053 197.746 151.563C199.134 150.235 200.744 149.161 202.502 148.388C190.624 158.566 197.699 169.256 197.699 169.256Z" fill="url(#paint1_linear_1_5329)"/>
<path opacity="0.23" d="M126.047 260.36C167.773 260.36 201.599 229.809 201.599 192.121C201.599 154.434 167.773 123.882 126.047 123.882C84.3208 123.882 50.4951 154.434 50.4951 192.121C50.4951 229.809 84.3208 260.36 126.047 260.36Z" fill="#2F1073"/>
<path d="M219.85 180.813C219.87 196.656 214.714 212.071 205.166 224.713L205.011 224.927C194.549 238.716 179.525 248.337 162.623 252.072C145.721 255.807 128.042 253.412 112.744 245.314C97.4449 237.217 85.5226 223.946 79.1062 207.869C72.6897 191.793 72.1968 173.96 77.7156 157.554C83.2344 141.148 94.4054 127.237 109.234 118.308C124.062 109.378 141.581 106.01 158.664 108.806C175.746 111.601 191.278 120.378 202.486 133.568C213.695 146.759 219.849 163.504 219.85 180.813Z" fill="#2F1073"/>
<path d="M123.395 144.916C119.388 146.569 114.965 146.961 110.851 148.317C106.737 149.672 102.611 152.407 101.553 156.64C101.006 158.769 101.291 161.135 100.245 163.061C98.8534 165.653 95.5954 166.628 93.6216 168.768C89.8642 172.906 92.3375 180.005 96.9272 183.203C101.517 186.402 107.379 186.889 112.872 187.829C114.375 187.949 115.808 188.516 116.986 189.458C120.185 192.514 116.641 198.043 117.997 202.252C118.758 204.63 121.005 206.259 122.028 208.542C123.99 212.894 121.017 217.698 119.055 222.049C115.517 229.989 115.197 238.992 118.163 247.162C118.027 247.359 117.876 247.546 117.712 247.721C109.887 244.287 102.72 239.515 96.5348 233.619C90.5063 225.165 85.7383 215.95 86.2377 205.819C86.5111 200.326 88.3423 195.023 88.6871 189.553C89.2578 180.671 86.0474 171.028 90.3993 163.275C92.7774 158.983 97.4147 154.274 94.8226 150.112C90.2447 150.778 85.3102 150.885 81.1129 149.292C86.2634 138.562 93.9589 129.255 103.529 122.179C113.1 115.104 124.255 110.476 136.023 108.698C140.541 121.611 136.95 139.209 123.395 144.916Z" fill="url(#paint2_linear_1_5329)"/>
<path d="M219.85 180.813C219.855 185.43 219.421 190.036 218.554 194.571C216.616 196.147 214.799 197.868 213.12 199.719C207.354 206.473 206.105 215.843 205.166 224.689C205.166 224.879 205.166 225.07 205.106 225.248C205.106 225.129 205.106 225.022 205.011 224.903C204.552 222.631 203.562 220.5 202.122 218.684C200.481 216.913 197.568 216.033 195.57 217.424C194.619 215.046 193.664 212.688 192.705 210.349C186.759 210.349 180.624 210.349 175.035 208.245C169.447 206.14 164.822 202.109 160.351 198.173C160.938 191.354 160.81 184.491 159.97 177.698C177.337 175.813 193.401 167.597 205.094 154.619C194.637 154.097 184.268 156.773 175.368 162.288C173.466 163.477 171.54 164.809 169.316 164.999C167.907 165.034 166.502 164.842 165.154 164.428L150.779 160.778C148.983 151.527 155.392 142.241 163.632 137.663C169.816 134.239 177.318 134.904 183.252 131.908C187.318 129.863 188.507 126.284 192.062 123.656H192.134C200.77 130.472 207.751 139.155 212.551 149.054C217.351 158.954 219.847 169.812 219.85 180.813Z" fill="url(#paint3_linear_1_5329)"/>
<path d="M169.459 166.034C169.031 167.437 168.627 169.078 169.459 170.255C169.868 170.758 170.406 171.14 171.016 171.361C171.727 171.7 172.517 171.836 173.299 171.754C174.082 171.672 174.827 171.375 175.452 170.897C176.104 170.183 176.566 169.316 176.795 168.376C177.907 164.964 178.703 161.458 179.173 157.901C179.263 157.574 179.263 157.229 179.173 156.902C178.988 156.559 178.689 156.29 178.329 156.141C176.439 155.13 173.478 154.322 172.384 156.557C171.04 159.434 170.41 162.99 169.459 166.034Z" fill="#FBC4D6"/>
<path d="M175.178 167.663C175.577 167.608 175.984 167.644 176.367 167.77C176.628 167.914 176.855 168.113 177.033 168.352L181.135 172.954C181.932 173.846 182.764 175.07 182.205 176.129C182.008 176.423 181.748 176.67 181.444 176.851C181.139 177.032 180.798 177.143 180.446 177.175C178.459 177.357 176.461 176.965 174.691 176.045C173.43 175.498 172.182 174.856 170.957 174.262C170.047 173.849 169.251 173.22 168.638 172.431C167.699 171.004 167.449 167.579 169.09 166.485C169.934 165.95 170.672 166.331 171.468 166.699C172.607 167.32 173.881 167.651 175.178 167.663Z" fill="#2F1073"/>
<path d="M192.193 181.705C192.225 181.97 192.197 182.238 192.11 182.49C191.968 182.735 191.763 182.936 191.516 183.073C190.736 183.61 189.822 183.919 188.876 183.964C188.403 183.982 187.933 183.891 187.502 183.697C187.071 183.503 186.691 183.212 186.391 182.847C185.953 182.155 185.688 181.368 185.618 180.552C185.269 178.798 185.098 177.013 185.107 175.225C185.086 175.12 185.088 175.012 185.113 174.907C185.139 174.803 185.187 174.706 185.253 174.622C185.32 174.539 185.404 174.47 185.5 174.423C185.596 174.375 185.701 174.348 185.808 174.345C187.283 174.036 190.219 173.263 190.969 175.07C191.732 177.202 192.145 179.442 192.193 181.705Z" fill="#FBC4D6"/>
<path d="M198.436 181.527C199.703 181.595 200.955 181.835 202.157 182.24C202.755 182.447 203.304 182.774 203.771 183.202C204.237 183.629 204.611 184.148 204.868 184.725C205.109 185.291 205.138 185.924 204.952 186.509C204.541 187.377 203.82 188.061 202.93 188.423C198.704 190.669 193.937 191.694 189.161 191.384C187.936 191.433 186.739 191.007 185.82 190.195C185.157 189.213 184.847 188.035 184.94 186.854L184.774 181.265C185.85 181.313 186.9 181.61 187.841 182.133C189.601 182.728 190.291 181.301 191.741 180.944C193.632 180.504 196.509 181.337 198.436 181.527Z" fill="#2F1073"/>
<path d="M175.178 167.663C175.577 167.608 175.984 167.644 176.367 167.77C176.628 167.914 176.855 168.113 177.033 168.352L181.135 172.954C181.932 173.846 182.764 175.07 182.205 176.129C182.008 176.423 181.748 176.67 181.444 176.851C181.139 177.032 180.798 177.143 180.446 177.175C178.459 177.357 176.461 176.965 174.691 176.045C173.43 175.498 172.182 174.856 170.957 174.262C170.047 173.849 169.251 173.22 168.638 172.431C167.699 171.004 167.449 167.579 169.09 166.485C169.934 165.95 170.672 166.331 171.468 166.699C172.607 167.32 173.881 167.651 175.178 167.663Z" fill="url(#paint4_linear_1_5329)"/>
<path d="M198.436 181.527C199.703 181.595 200.955 181.835 202.157 182.24C202.755 182.447 203.304 182.774 203.771 183.202C204.237 183.629 204.611 184.148 204.868 184.725C205.109 185.291 205.138 185.924 204.952 186.509C204.541 187.377 203.82 188.061 202.93 188.423C198.704 190.669 193.937 191.694 189.161 191.384C187.936 191.433 186.739 191.007 185.82 190.195C185.157 189.213 184.847 188.035 184.94 186.854L184.774 181.265C185.85 181.313 186.9 181.61 187.841 182.133C189.601 182.728 190.291 181.301 191.741 180.944C193.632 180.504 196.509 181.337 198.436 181.527Z" fill="url(#paint5_linear_1_5329)"/>
<path d="M130.696 120.981C128.138 120.759 125.565 120.799 123.015 121.1C122.681 121.117 122.358 121.219 122.076 121.397C121.913 121.55 121.783 121.734 121.693 121.938C121.603 122.143 121.555 122.363 121.552 122.586C121.196 126.034 123.93 129.031 126.879 130.85C134.858 135.796 144.917 135.606 153.728 138.84C154.568 139.063 155.315 139.551 155.856 140.231C156.224 140.969 156.403 141.786 156.379 142.609C156.772 147.259 159.352 151.444 160.208 156.022C161.064 160.6 160.149 165.391 160.85 170.005C163.74 166.925 168.662 166.438 171.552 163.394C174.263 160.588 174.798 156.402 175.202 152.526L176.296 141.896C176.499 141.129 176.415 140.315 176.06 139.606C175.706 138.897 175.105 138.341 174.37 138.044C161.362 129.637 146.118 122.312 130.696 120.981Z" fill="url(#paint6_linear_1_5329)"/>
<path d="M183.299 119.911C184.501 120.152 185.615 120.715 186.522 121.54C187.452 122.834 187.875 124.425 187.711 126.01C187.683 137.293 185.549 148.471 181.421 158.971C181.382 159.34 181.253 159.694 181.046 160.001C180.839 160.309 180.559 160.562 180.232 160.736C179.905 160.911 179.539 161.003 179.168 161.004C178.797 161.005 178.432 160.915 178.103 160.742C175.631 160.075 173.194 159.281 170.803 158.364L174.037 136.961C174.191 136.368 174.158 135.74 173.942 135.166C173.703 134.759 173.368 134.416 172.967 134.167C169.278 131.484 165.381 129.098 161.314 127.033C158.068 125.392 154.346 123.466 153.466 119.994C153.284 119.401 153.247 118.772 153.359 118.161C153.47 117.551 153.727 116.976 154.108 116.486C154.623 115.981 155.228 115.577 155.892 115.297C158.044 114.239 160.755 112.919 163.228 113.133C165.214 113.335 165.975 114.477 167.628 115.321C172.217 117.604 178.317 118.46 183.299 119.911Z" fill="#282328"/>
<path d="M161.207 85.8683C162.8 90.2559 163.585 94.9051 164.988 99.3402C165.295 100.516 165.846 101.614 166.605 102.562C167.614 103.53 168.836 104.247 170.172 104.655C172.035 105.377 173.93 106.007 175.856 106.546C177.14 106.891 178.674 107.485 178.817 108.793C178.847 109.229 178.756 109.665 178.555 110.053C178.058 110.939 177.343 111.683 176.477 112.214C175.611 112.745 174.623 113.045 173.609 113.086C171.583 113.14 169.565 112.809 167.663 112.111C165.931 111.76 164.342 110.903 163.097 109.649C162.39 108.606 161.893 107.435 161.635 106.201C159.684 99.2743 156.976 92.5833 153.561 86.2488C152.54 84.576 151.74 82.7773 151.183 80.8981C150.398 77.6164 150.387 69.84 153.775 72.6937C156.51 75.0005 160.006 82.6104 161.207 85.8683Z" fill="#FBC4D6"/>
<path d="M148.234 119.495C150.239 118.718 152.189 117.808 154.073 116.772C161.207 112.824 155.369 110.886 152.991 106.142C151.29 102.777 151.98 98.7458 152.86 95.0954C154.417 88.6746 156.498 82.0159 155 75.607C154.813 74.5668 154.408 73.5781 153.811 72.7057C153.375 72.1645 152.871 71.6811 152.313 71.267C150.807 69.966 149.073 68.9542 147.2 68.2825C143.633 67.0934 139.59 67.9614 136.201 69.6618C122.884 76.3442 120.042 93.2167 120.577 106.712C120.72 110.458 121.303 114.417 123.716 117.283C126.13 120.149 129.543 121.242 133.039 121.671C138.206 122.199 143.423 121.452 148.234 119.495Z" fill="white"/>
<path d="M128.377 111.861C128.485 113.127 128.892 114.35 129.566 115.428C130.755 117.105 132.943 117.723 134.953 118.21L144.001 120.446C145.104 120.78 146.25 120.952 147.402 120.957C149.875 120.838 152.004 119.257 153.966 117.735C154.467 117.392 154.902 116.961 155.25 116.462C150.256 115.987 145.274 115.487 140.303 114.762C137.378 114.334 134.287 113.74 132.135 111.73C131.023 110.632 130.177 109.294 129.661 107.818C129.305 106.903 129.138 104.572 128.104 104.37C127.843 106.867 127.935 109.389 128.377 111.861Z" fill="url(#paint7_linear_1_5329)"/>
<path d="M146.237 78.7342C146.236 79.1091 146.086 79.4683 145.821 79.733C145.573 79.8785 145.285 79.9371 145 79.8994C144.068 79.8558 143.157 79.6129 142.327 79.1872C141.497 78.7615 140.768 78.1628 140.188 77.4316C139.609 76.7003 139.194 75.8535 138.969 74.948C138.745 74.0426 138.718 73.0996 138.888 72.1825C139.102 70.9935 139.614 69.9709 139.935 68.8532C140.565 66.6178 140.458 64.097 141.873 62.254C143.098 65.057 144.496 67.7811 146.058 70.4109C146.458 70.9338 146.735 71.5392 146.871 72.1831C147.007 72.8269 146.997 73.4929 146.843 74.1326L146.237 78.7342Z" fill="#FBC4D6"/>
<path d="M146.938 72.9791L146.403 76.5462C146.403 76.5462 140.28 73.5142 141.076 67.89C141.873 62.2658 146.938 72.9791 146.938 72.9791Z" fill="url(#paint8_linear_1_5329)"/>
<path d="M154.096 69.5072C153.782 70.6499 153.117 71.6649 152.194 72.4084C151.754 72.7068 151.262 72.9205 150.743 73.0386C148.923 73.3919 147.037 73.16 145.356 72.3762C143.675 71.5923 142.285 70.2967 141.385 68.6748C140.537 67.0319 140.054 65.2255 139.968 63.3786C139.882 61.5318 140.195 59.6882 140.886 57.9734C141.452 56.0928 142.733 54.509 144.453 53.5621C145.394 53.1911 146.412 53.0589 147.416 53.1772C148.42 53.2954 149.379 53.6605 150.208 54.2399C152.461 55.8124 154.201 58.0121 155.214 60.5656C156.082 63.1696 154.988 67.0221 154.096 69.5072Z" fill="#FBC4D6"/>
<path d="M180.981 134.857C182.505 136.798 183.709 138.969 184.548 141.29C189.224 152.567 192.263 164.455 193.573 176.592C189.755 177.068 185.892 177.068 182.075 176.592C181.776 168.023 180.454 159.521 178.139 151.266C177.73 149.489 177.026 147.793 176.058 146.248C174.358 143.787 171.563 142.36 168.924 141.028C162.747 138.027 156.292 135.637 149.649 133.894C146.843 133.121 144.013 132.407 141.255 131.516C138.936 130.731 132.432 127.853 130.553 126.296C129.569 125.549 128.745 124.612 128.132 123.539C127.519 122.466 127.129 121.28 126.986 120.053C126.986 120.672 145.107 121.908 146.403 121.766C150.767 121.302 155.916 118.805 160.22 120.576C163.585 121.956 166.665 124.833 169.732 126.819C173.454 129.149 177.996 131.409 180.981 134.857Z" fill="#473F47"/>
<path d="M161.124 133.941L139.007 123.133L164.94 112.134L187.069 121.801L161.124 133.941Z" fill="#2F1073"/>
<path d="M127.438 83.193C127.438 83.6092 127.331 84.0135 127.283 84.3821C126.629 90.47 127.224 96.439 127.45 102.491C127.593 106.237 128.08 113.371 132.063 115.285C139.507 118.852 153.87 117.497 153.87 117.497C155.536 117.23 157.238 117.299 158.876 117.699C159.768 117.973 160.589 118.436 161.457 118.769C164.596 119.958 168.103 119.364 171.409 118.769C171.978 118.702 172.528 118.52 173.026 118.234C173.603 117.722 173.955 117.003 174.006 116.233C174.057 115.463 173.803 114.704 173.299 114.12C172.226 112.993 170.831 112.224 169.304 111.92C165.13 110.558 160.658 110.385 156.391 111.421C155.846 111.605 155.29 111.756 154.727 111.873C154.066 111.98 153.398 112.028 152.729 112.015H147.664C141.837 112.015 136.344 112.087 135.464 105.274C135.139 102.75 135.075 100.2 135.274 97.6637C135.619 93.0859 136.82 88.5437 136.57 83.9659C136.555 82.5141 136.192 81.087 135.512 79.8043C135.167 79.1674 134.664 78.6296 134.052 78.2424C133.44 77.8551 132.739 77.6314 132.016 77.5927C131.267 77.6486 130.545 77.8968 129.92 78.3134C129.295 78.73 128.788 79.3009 128.449 79.9707C127.922 80.976 127.58 82.0673 127.438 83.193Z" fill="#FBC4D6"/>
<path d="M196.177 99.9941L165.261 115.725L161.124 133.941L187.069 121.801L196.177 99.9941Z" fill="#2F1073"/>
<path d="M155.618 62.9436C155.584 61.8116 155.165 60.7251 154.429 59.864C154.056 59.4306 153.614 59.0611 153.121 58.7701C152.432 58.3658 152.265 58.3301 151.813 58.9841C151.231 59.8283 151.041 60.8152 150.505 61.6951C149.92 62.671 149.103 63.4877 148.127 64.0732C147.031 64.7537 145.755 65.0893 144.465 65.0363C143.953 64.9589 143.432 64.9589 142.919 65.0363C142.747 65.0689 142.585 65.139 142.443 65.2418C142.301 65.3446 142.183 65.4774 142.099 65.6308C141.976 66.0756 141.932 66.5383 141.968 66.9982C141.861 68.1873 140.684 69.0315 140.03 70.066C139.376 71.1004 139.186 72.6343 138.401 73.7401C138.255 73.962 138.055 74.1422 137.818 74.2633C137.26 74.5011 136.629 74.1919 136.047 74.0849C134.323 73.7877 132.931 75.3929 131.457 76.3679C128.496 78.3179 124.62 77.8185 121.124 77.2359C120.054 77.1064 119.011 76.8095 118.033 76.356C116.976 75.7326 116.039 74.9275 115.262 73.9779C113.966 72.5511 112.682 71.1004 111.41 69.6498C110.937 69.1854 110.561 68.6317 110.304 68.0208C110.168 67.5948 110.131 67.1433 110.197 66.701C110.313 65.8752 110.558 65.0728 110.922 64.3229C111.85 62.2421 112.932 59.9829 115.024 59.0435C117.117 58.1042 119.59 58.8057 121.897 58.5679C122.178 58.5673 122.452 58.4801 122.682 58.3182C122.866 58.1108 122.996 57.8619 123.062 57.5929C124.026 54.3944 125.226 50.9224 128.104 49.2696C130.321 48.2045 132.821 47.8754 135.238 48.3303C137.632 48.7825 140.074 48.9224 142.503 48.7464C143.692 48.5562 144.881 48.1638 146.07 47.926C148.851 47.3081 151.761 47.7312 154.251 49.115C155.48 49.8462 156.507 50.871 157.242 52.0976C157.977 53.3241 158.395 54.714 158.46 56.1423C158.413 56.7001 158.413 57.261 158.46 57.8188C158.543 58.342 158.769 58.8533 158.853 59.3765C158.901 59.8287 158.854 60.2861 158.713 60.7186C158.572 61.1511 158.341 61.5489 158.036 61.8858C157.73 62.2228 157.357 62.4912 156.94 62.6735C156.524 62.8559 156.073 62.9479 155.618 62.9436Z" fill="#FF681C"/>
<path d="M126.356 86.5698C125.989 89.9349 125.95 93.3277 126.237 96.7005C126.223 96.9932 126.297 97.2833 126.451 97.5328C126.704 97.8095 127.053 97.9795 127.426 98.0084C129.352 98.3669 131.306 98.5539 133.264 98.5673C133.539 98.6551 133.83 98.6813 134.116 98.6438C134.402 98.6064 134.677 98.5064 134.92 98.3508C135.163 98.1953 135.368 97.988 135.522 97.7439C135.676 97.4997 135.774 97.2246 135.809 96.9383C136.879 92.4675 137.937 87.9967 138.746 83.4664C139.067 81.6472 139.293 79.602 138.199 78.1276C136.618 75.9873 132.349 75.7495 130.292 77.3072C127.807 79.2215 126.748 83.6923 126.356 86.5698Z" fill="white"/>
<path d="M160.006 80.8624L163.371 88.9242C163.537 89.2376 163.604 89.5944 163.561 89.9467C163.476 90.2359 163.311 90.4954 163.086 90.6958C161.442 92.434 159.491 93.853 157.331 94.8813C155.339 93.1019 153.722 90.9433 152.574 88.5318C151.457 85.6662 151.707 82.4795 152.039 79.4237C152.242 77.4856 152.17 71.255 155.464 73.6687C157.759 75.3215 158.972 78.3773 160.006 80.8624Z" fill="white"/>
<path d="M99.1388 156.486C99.1398 157.585 98.9169 158.672 98.4835 159.682C98.0501 160.692 97.4153 161.603 96.618 162.359C95.2438 163.661 93.473 164.465 91.5883 164.642C91.2358 164.66 90.8826 164.66 90.5301 164.642L31.4703 163.453C29.203 163.429 27.0347 162.521 25.4269 160.922C23.8191 159.323 22.8987 157.159 22.8617 154.892C22.8606 153.793 23.0836 152.706 23.517 151.696C23.9504 150.686 24.5851 149.775 25.3824 149.018C26.1909 148.241 27.1448 147.631 28.1894 147.223C29.2341 146.815 30.349 146.617 31.4703 146.64H33.4798C33.0586 145.179 32.8464 143.666 32.8496 142.146C32.8456 139.979 33.2844 137.833 34.1391 135.842C34.9937 133.85 36.2463 132.055 37.8198 130.564C39.2063 129.238 40.8165 128.167 42.576 127.402C44.8539 126.408 47.3207 125.921 49.8054 125.975L54.8231 126.082C57.9254 126.139 60.9562 127.023 63.604 128.64C66.2518 130.258 68.4209 132.551 69.8883 135.285C71.339 134.608 72.9249 134.27 74.5256 134.298H75.8216C78.5087 134.332 81.077 135.411 82.9817 137.307C84.8863 139.202 85.9775 141.766 86.0236 144.452V144.94C86.0284 145.862 85.8961 146.78 85.6312 147.663L90.5182 147.77C92.8142 147.792 95.0085 148.72 96.6232 150.353C98.2378 151.985 99.142 154.189 99.1388 156.486Z" fill="white"/>
<path d="M91.5883 164.642C91.2358 164.661 90.8826 164.661 90.5301 164.642L31.4703 163.453C29.203 163.429 27.0347 162.521 25.4269 160.922C23.8191 159.323 22.8987 157.16 22.8617 154.892C22.8606 153.793 23.0836 152.706 23.517 151.696C23.9504 150.686 24.5851 149.775 25.3824 149.018C23.0638 163.596 38.2836 161.515 38.2836 161.515H76.654L91.5883 164.642Z" fill="url(#paint9_linear_1_5329)"/>
<path d="M37.7604 148.4L33.4798 146.771C33.0586 145.31 32.8464 143.797 32.8496 142.277C32.8456 140.109 33.2844 137.964 34.1391 135.973C34.9937 133.981 36.2463 132.185 37.8198 130.695C39.2063 129.369 40.8165 128.298 42.576 127.532C30.7213 137.711 37.7604 148.4 37.7604 148.4Z" fill="url(#paint10_linear_1_5329)"/>
<path d="M254.927 87.3784C254.928 88.4785 254.704 89.5671 254.268 90.5773C253.833 91.5875 253.195 92.4978 252.395 93.2523C251.016 94.5543 249.241 95.3578 247.353 95.5352C247.001 95.5654 246.647 95.5654 246.295 95.5352L187.247 94.3462C184.999 94.3161 182.85 93.4162 181.251 91.8354C179.653 90.2546 178.729 88.1158 178.674 85.8683C178.661 84.7582 178.878 83.6574 179.309 82.6346C179.741 81.6117 180.379 80.6887 181.183 79.9231C182.828 78.3646 185.017 77.5111 187.283 77.545H189.28C188.865 76.087 188.652 74.5785 188.65 73.0623C188.647 70.8953 189.086 68.7504 189.94 66.759C190.795 64.7676 192.047 62.9716 193.62 61.481C195.007 60.1518 196.617 59.0771 198.376 58.3063C200.654 57.3113 203.121 56.8244 205.606 56.8794L210.623 56.9865C213.726 57.0437 216.756 57.928 219.403 59.548C222.049 61.1679 224.215 63.4648 225.677 66.2015C227.124 65.5147 228.712 65.1767 230.314 65.2146H231.61C234.298 65.2421 236.869 66.3173 238.777 68.2115C240.684 70.1057 241.778 72.6694 241.824 75.3572V75.8447C241.823 76.7711 241.687 77.6924 241.42 78.5795L246.307 78.6746C248.599 78.7027 250.788 79.6314 252.401 81.2599C254.014 82.8885 254.921 85.0862 254.927 87.3784Z" fill="white"/>
<path d="M247.365 95.5352C247.013 95.5654 246.659 95.5654 246.307 95.5352L187.259 94.3462C185.009 94.3192 182.857 93.4206 181.256 91.8394C179.655 90.2583 178.729 88.1179 178.674 85.8683C178.661 84.7582 178.878 83.6574 179.309 82.6346C179.741 81.6117 180.379 80.6887 181.183 79.9231C178.805 94.5127 194.084 92.4199 194.084 92.4199H232.454L247.365 95.5352Z" fill="url(#paint11_linear_1_5329)"/>
<path d="M193.549 79.293L189.256 77.664C188.841 76.2059 188.629 74.6974 188.626 73.1813C188.623 71.0143 189.062 68.8694 189.917 66.878C190.771 64.8866 192.023 63.0906 193.596 61.6C194.983 60.2708 196.593 59.1961 198.353 58.4253C186.51 68.6035 193.549 79.293 193.549 79.293Z" fill="url(#paint12_linear_1_5329)"/>
<path d="M143.003 65.0601C142.831 65.0927 142.668 65.1628 142.526 65.2656C142.384 65.3684 142.267 65.5012 142.182 65.6546C142.059 66.0994 142.015 66.5621 142.051 67.022C141.944 68.2111 140.767 69.0553 140.113 70.0898C139.459 71.1242 139.269 72.6581 138.484 73.7639C138.339 73.9858 138.138 74.166 137.902 74.2871C137.343 74.5249 136.713 74.2157 136.13 74.1087C134.406 73.8115 133.015 75.4167 131.54 76.3917C128.58 78.3417 124.703 77.8423 121.207 77.2597C120.107 77.1314 119.035 76.8262 118.033 76.356C116.976 75.7326 116.039 74.9276 115.262 73.9779C113.966 72.5511 112.682 71.1004 111.41 69.6498C110.937 69.1854 110.561 68.6317 110.304 68.0208C110.168 67.5948 110.131 67.1433 110.197 66.701C110.751 66.3662 111.327 66.0683 111.921 65.8092C113.744 64.831 115.874 64.5966 117.866 65.1552C119.46 65.7735 120.589 67.1885 121.957 68.1992C123.864 69.5344 126.183 70.1479 128.501 69.93C130.819 69.7122 132.983 68.6772 134.608 67.0101C135.207 66.2207 135.911 65.5166 136.701 64.9174C138.116 64.1445 140.993 64.2634 143.003 65.0601Z" fill="url(#paint13_linear_1_5329)"/>
<defs>
<linearGradient id="paint0_linear_1_5329" x1="219.541" y1="212.014" x2="214.155" y2="142.621" gradientUnits="userSpaceOnUse">
<stop offset="0.01"/>
<stop offset="0.13" stop-opacity="0.69"/>
<stop offset="0.25" stop-opacity="0.32"/>
<stop offset="1" stop-opacity="0"/>
</linearGradient>
<linearGradient id="paint1_linear_1_5329" x1="1762.42" y1="3292.53" x2="2340.22" y2="3167.22" gradientUnits="userSpaceOnUse">
<stop offset="0.01"/>
<stop offset="0.13" stop-opacity="0.69"/>
<stop offset="0.25" stop-opacity="0.32"/>
<stop offset="1" stop-opacity="0"/>
</linearGradient>
<linearGradient id="paint2_linear_1_5329" x1="7001.84" y1="36272.7" x2="-46.9595" y2="-14659.9" gradientUnits="userSpaceOnUse">
<stop offset="0.01"/>
<stop offset="0.13" stop-opacity="0.69"/>
<stop offset="0.25" stop-opacity="0.32"/>
<stop offset="1" stop-opacity="0"/>
</linearGradient>
<linearGradient id="paint3_linear_1_5329" x1="12898.2" y1="26196.2" x2="9779.43" y2="-11479" gradientUnits="userSpaceOnUse">
<stop offset="0.01"/>
<stop offset="0.13" stop-opacity="0.69"/>
<stop offset="0.25" stop-opacity="0.32"/>
<stop offset="1" stop-opacity="0"/>
</linearGradient>
<linearGradient id="paint4_linear_1_5329" x1="-12719.7" y1="1767.1" x2="-12963.2" y2="1926.31" gradientUnits="userSpaceOnUse">
<stop offset="0.01"/>
<stop offset="0.13" stop-opacity="0.69"/>
<stop offset="0.25" stop-opacity="0.32"/>
<stop offset="1" stop-opacity="0"/>
</linearGradient>
<linearGradient id="paint5_linear_1_5329" x1="-17965.5" y1="1992.6" x2="-18036" y2="1689.38" gradientUnits="userSpaceOnUse">
<stop offset="0.01"/>
<stop offset="0.13" stop-opacity="0.69"/>
<stop offset="0.25" stop-opacity="0.32"/>
<stop offset="1" stop-opacity="0"/>
</linearGradient>
<linearGradient id="paint6_linear_1_5329" x1="-51387.4" y1="4372.18" x2="-54733.2" y2="9548.78" gradientUnits="userSpaceOnUse">
<stop offset="0.01"/>
<stop offset="0.13" stop-opacity="0.69"/>
<stop offset="0.25" stop-opacity="0.32"/>
<stop offset="1" stop-opacity="0"/>
</linearGradient>
<linearGradient id="paint7_linear_1_5329" x1="4351.14" y1="1371.96" x2="3802.21" y2="2687.49" gradientUnits="userSpaceOnUse">
<stop offset="0.01"/>
<stop offset="0.13" stop-opacity="0.69"/>
<stop offset="0.25" stop-opacity="0.32"/>
<stop offset="1" stop-opacity="0"/>
</linearGradient>
<linearGradient id="paint8_linear_1_5329" x1="-4684.36" y1="647.259" x2="-4805.9" y2="800.426" gradientUnits="userSpaceOnUse">
<stop offset="0.01"/>
<stop offset="0.13" stop-opacity="0.69"/>
<stop offset="0.25" stop-opacity="0.32"/>
<stop offset="1" stop-opacity="0"/>
</linearGradient>
<linearGradient id="paint9_linear_1_5329" x1="4964.31" y1="2722.18" x2="4948.06" y2="1804.18" gradientUnits="userSpaceOnUse">
<stop offset="0.01"/>
<stop offset="0.13" stop-opacity="0.69"/>
<stop offset="0.25" stop-opacity="0.32"/>
<stop offset="1" stop-opacity="0"/>
</linearGradient>
<linearGradient id="paint10_linear_1_5329" x1="294.49" y1="2905.44" x2="872.307" y2="2780.21" gradientUnits="userSpaceOnUse">
<stop offset="0.01"/>
<stop offset="0.13" stop-opacity="0.69"/>
<stop offset="0.25" stop-opacity="0.32"/>
<stop offset="1" stop-opacity="0"/>
</linearGradient>
<linearGradient id="paint11_linear_1_5329" x1="14117.6" y1="1743.93" x2="14101.3" y2="826.252" gradientUnits="userSpaceOnUse">
<stop offset="0.01"/>
<stop offset="0.13" stop-opacity="0.69"/>
<stop offset="0.25" stop-opacity="0.32"/>
<stop offset="1" stop-opacity="0"/>
</linearGradient>
<linearGradient id="paint12_linear_1_5329" x1="1724.62" y1="1623.71" x2="2302.42" y2="1498.41" gradientUnits="userSpaceOnUse">
<stop offset="0.01"/>
<stop offset="0.13" stop-opacity="0.69"/>
<stop offset="0.25" stop-opacity="0.32"/>
<stop offset="1" stop-opacity="0"/>
</linearGradient>
<linearGradient id="paint13_linear_1_5329" x1="5163.19" y1="1140.37" x2="4481.07" y2="-135.564" gradientUnits="userSpaceOnUse">
<stop offset="0.01"/>
<stop offset="0.13" stop-opacity="0.69"/>
<stop offset="0.25" stop-opacity="0.32"/>
<stop offset="1" stop-opacity="0"/>
</linearGradient>
</defs>
</svg>
